<svg width="19" height="19" viewBox="0 0 19 19" fill="none" xmlns="http://www.w3.org/2000/svg">
<path opacity="0.15" d="M1.97919 18.0103C1.97919 18.1677 2.37245 18.3187 3.07247 18.4301C3.77249 18.5414 4.72192 18.604 5.7119 18.604C6.70187 18.604 7.6513 18.5414 8.35132 18.4301C9.05134 18.3187 9.4446 18.1677 9.4446 18.0103C9.4446 17.8528 9.05134 17.7018 8.35132 17.5904C7.6513 17.4791 6.70187 17.4165 5.7119 17.4165C4.72192 17.4165 3.77249 17.4791 3.07247 17.5904C2.37245 17.7018 1.97919 17.8528 1.97919 18.0103Z" fill="#45413C"/>
<path d="M8.21357 7.56043C7.98615 7.67196 7.74102 7.74296 7.48919 7.77022L5.48628 7.98397C5.36856 7.99664 5.25563 8.03752 5.15708 8.10314C5.05853 8.16876 4.97725 8.25718 4.92015 8.36089C4.86304 8.46461 4.8318 8.58057 4.82905 8.69894C4.82631 8.81731 4.85216 8.93459 4.9044 9.04084L8.66086 16.6725C8.71316 16.7764 8.74442 16.8896 8.75282 17.0056C8.76123 17.1217 8.74662 17.2382 8.70983 17.3486C8.67305 17.4589 8.61481 17.5609 8.53848 17.6487C8.46214 17.7365 8.36921 17.8083 8.26503 17.86C8.16404 17.9098 8.05418 17.9391 7.94181 17.9461C7.82944 17.9531 7.7168 17.9378 7.6104 17.901C7.50399 17.8641 7.40596 17.8066 7.32196 17.7316C7.23797 17.6566 7.16968 17.5657 7.12107 17.4642C7.12107 17.4642 4.83711 12.8329 3.79211 10.735C3.13275 9.41161 2.64458 8.00964 2.3394 6.56293C2.09973 5.43481 2.23886 4.25914 2.73523 3.21813C3.18872 2.21688 3.97278 1.40207 4.95586 0.910426C5.36438 0.709639 5.82618 0.643991 6.27447 0.722976C6.72276 0.801961 7.13431 1.02148 7.44961 1.3498C7.7859 1.69983 8.06507 2.10056 8.2769 2.5373L8.75586 3.51105C9.02676 4.08675 9.2415 4.68724 9.39711 5.30418C9.4643 5.75714 9.38588 6.21973 9.17316 6.62525C8.96045 7.03076 8.62443 7.35823 8.21357 7.56043Z" fill="#E8F4FA"/>
<path d="M3.05582 8.2849C2.81555 7.15682 2.9547 5.98095 3.45166 4.94011C3.90639 3.9344 4.69716 3.11844 5.68812 2.63241C6.09636 2.43038 6.55847 2.36405 7.00705 2.44308C7.45564 2.52212 7.86725 2.74239 8.18187 3.07178C8.51867 3.42139 8.7979 3.8222 9.00916 4.25928L9.24666 4.75011C9.11063 4.32158 8.94667 3.90242 8.75582 3.49532L8.27687 2.52949C8.06504 2.09275 7.78586 1.69202 7.44957 1.34199C7.13428 1.01367 6.72272 0.794149 6.27443 0.715164C5.82614 0.636179 5.36434 0.701827 4.95582 0.902613C3.96549 1.39333 3.17535 2.21144 2.71937 3.21824C2.22299 4.25925 2.08386 5.43492 2.32353 6.56303C2.61859 7.94107 3.07981 9.27821 3.69707 10.5451C3.42694 9.80886 3.21259 9.05332 3.05582 8.2849Z" fill="white"/>
<path d="M5.88607 1.55158C6.25633 1.97973 6.57271 2.45165 6.82815 2.95679L7.63961 4.61137C7.88688 5.11323 8.06657 5.64564 8.17398 6.19471C8.27501 6.6731 8.23654 7.17045 8.06315 7.62762L8.21357 7.56033C8.62661 7.35833 8.96446 7.02986 9.17802 6.62267C9.39158 6.21549 9.46971 5.7508 9.40107 5.29616C9.24546 4.67923 9.03071 4.07874 8.75981 3.50304L8.2769 2.52929C8.06507 2.09255 7.7859 1.69182 7.44961 1.34179C7.14067 1.01977 6.739 0.802097 6.30053 0.719087C5.86207 0.636076 5.40863 0.691858 5.00336 0.878665C5.33728 1.04548 5.63675 1.27378 5.88607 1.55158Z" fill="#C0DCEB"/>
<path d="M5.88607 1.55158C6.12176 1.82035 6.33366 2.10907 6.5194 2.4145C6.82499 2.39905 7.13032 2.44976 7.41451 2.56317C7.6987 2.67657 7.95506 2.84999 8.16606 3.07158C8.50287 3.42119 8.7821 3.822 8.99336 4.25908L9.24669 4.74991C9.11066 4.32138 8.9467 3.90222 8.75586 3.49512L8.2769 2.52929C8.06507 2.09255 7.7859 1.69182 7.44961 1.34179C7.14067 1.01977 6.739 0.802097 6.30053 0.719087C5.86207 0.636076 5.40863 0.691858 5.00336 0.878665C5.33728 1.04548 5.63675 1.27378 5.88607 1.55158Z" fill="#DAEDF7"/>
<path d="M8.21357 7.56043C7.98615 7.67196 7.74102 7.74296 7.48919 7.77022L5.48628 7.98397C5.36856 7.99664 5.25563 8.03752 5.15708 8.10314C5.05853 8.16876 4.97725 8.25718 4.92015 8.36089C4.86304 8.46461 4.8318 8.58057 4.82905 8.69894C4.82631 8.81731 4.85216 8.93459 4.9044 9.04084L8.66086 16.6725C8.71316 16.7764 8.74442 16.8896 8.75282 17.0056C8.76123 17.1217 8.74662 17.2382 8.70983 17.3486C8.67305 17.4589 8.61481 17.5609 8.53848 17.6487C8.46214 17.7365 8.36921 17.8083 8.26503 17.86C8.16404 17.9098 8.05418 17.9391 7.94181 17.9461C7.82944 17.9531 7.7168 17.9378 7.6104 17.901C7.50399 17.8641 7.40596 17.8066 7.32196 17.7316C7.23797 17.6566 7.16968 17.5657 7.12107 17.4642C7.12107 17.4642 4.83711 12.8329 3.79211 10.735C3.13275 9.41161 2.64458 8.00964 2.3394 6.56293C2.09973 5.43481 2.23886 4.25914 2.73523 3.21813C3.18872 2.21688 3.97278 1.40207 4.95586 0.910426C5.36438 0.709639 5.82618 0.643991 6.27447 0.722976C6.72276 0.801961 7.13431 1.02148 7.44961 1.3498C7.7859 1.69983 8.06507 2.10056 8.2769 2.5373L8.75586 3.51105C9.02676 4.08675 9.2415 4.68724 9.39711 5.30418C9.4643 5.75714 9.38588 6.21973 9.17316 6.62525C8.96045 7.03076 8.62443 7.35823 8.21357 7.56043Z" stroke="#45413C" stroke-linecap="round" stroke-linejoin="round"/>
<path d="M8.66082 16.6723C8.71313 16.7762 8.74438 16.8895 8.75278 17.0055C8.76119 17.1215 8.74658 17.238 8.70979 17.3484C8.67301 17.4587 8.61477 17.5607 8.53844 17.6485C8.4621 17.7363 8.36917 17.8081 8.26499 17.8598C8.164 17.9096 8.05415 17.9389 7.94177 17.9459C7.8294 17.9529 7.71676 17.9376 7.61036 17.9008C7.50396 17.864 7.40592 17.8064 7.32192 17.7314C7.23793 17.6565 7.16964 17.5656 7.12103 17.464L5.71582 14.614L7.26749 13.854L8.66082 16.6723Z" fill="#C0DCEB" stroke="#45413C"/>
<path d="M5.88607 1.55158C6.25633 1.97973 6.57271 2.45165 6.82815 2.95679L7.63961 4.61137C7.88688 5.11323 8.06657 5.64564 8.17398 6.19471C8.27501 6.6731 8.23654 7.17045 8.06315 7.62762L8.21357 7.56033C8.62661 7.35833 8.96446 7.02986 9.17802 6.62267C9.39158 6.21549 9.46971 5.7508 9.40107 5.29616C9.24546 4.67923 9.03071 4.07874 8.75981 3.50304L8.2769 2.52929C8.06507 2.09255 7.7859 1.69182 7.44961 1.34179C7.14067 1.01977 6.739 0.802097 6.30053 0.719087C5.86207 0.636076 5.40863 0.691858 5.00336 0.878665C5.33728 1.04548 5.63675 1.27378 5.88607 1.55158Z" stroke="#45413C" stroke-linecap="round" stroke-linejoin="round"/>
</svg>
