<svg width="30" height="44" viewBox="0 0 30 44" fill="none" xmlns="http://www.w3.org/2000/svg">
<path d="M0 41.2816V1.84843C0 1.35819 0.155401 0.88804 0.432018 0.541392C0.708634 0.194745 1.08381 0 1.475 0H8.35833C8.74953 0 9.1247 0.194745 9.40132 0.541392C9.67793 0.88804 9.83333 1.35819 9.83333 1.84843V41.2816C9.83333 41.7718 9.67793 42.242 9.40132 42.5886C9.1247 42.9353 8.74953 43.13 8.35833 43.13H1.475C1.08381 43.13 0.708634 42.9353 0.432018 42.5886C0.155401 42.242 0 41.7718 0 41.2816ZM19.6667 41.2816V1.84843C19.6667 1.35819 19.8221 0.88804 20.0987 0.541392C20.3753 0.194745 20.7505 0 21.1417 0H28.025C28.4162 0 28.7914 0.194745 29.068 0.541392C29.3446 0.88804 29.5 1.35819 29.5 1.84843V41.2816C29.5 41.7718 29.3446 42.242 29.068 42.5886C28.7914 42.9353 28.4162 43.13 28.025 43.13H21.1417C20.7505 43.13 20.3753 42.9353 20.0987 42.5886C19.8221 42.242 19.6667 41.7718 19.6667 41.2816Z" fill="#007044"/>
</svg>
