<svg width="38" height="44" viewBox="0 0 38 44" fill="none" xmlns="http://www.w3.org/2000/svg">
<path d="M4.58593 43.5625C3.86643 43.5611 3.15966 43.3725 2.53515 43.0152C1.1289 42.2183 0.254684 40.6715 0.254684 38.9922V5.00778C0.254684 3.32379 1.1289 1.7816 2.53515 0.984728C3.17453 0.617271 3.90088 0.428305 4.63827 0.437582C5.37566 0.446858 6.09702 0.654037 6.72695 1.03746L35.7719 18.4234C36.3772 18.803 36.8762 19.33 37.2221 19.9552C37.568 20.5804 37.7495 21.2831 37.7495 21.9976C37.7495 22.7121 37.568 23.4149 37.2221 24.04C36.8762 24.6652 36.3772 25.1923 35.7719 25.5718L6.72226 42.9625C6.07761 43.3522 5.33923 43.5596 4.58593 43.5625Z" fill="#007044"/>
</svg>
